<?xml version="1.0" standalone="no"?>
<!DOCTYPE svg PUBLIC "-//W3C//DTD SVG 20010904//EN"
 "http://www.w3.org/TR/2001/REC-SVG-20010904/DTD/svg10.dtd">
<svg version="1.0" xmlns="http://www.w3.org/2000/svg"
 width="50.000000pt" height="50.000000pt" viewBox="0 0 50.000000 50.000000"
 preserveAspectRatio="xMidYMid meet">

<g transform="translate(0.000000,50.000000) scale(0.100000,-0.100000)"
fill="#000000" stroke="none">
<path d="M170 460 c0 -5 6 -13 14 -17 7 -4 18 -17 24 -28 10 -20 8 -21 -49
-20 -53 0 -62 -3 -91 -33 -30 -30 -33 -37 -33 -95 1 -69 21 -120 67 -169 42
-45 45 -27 4 26 -54 71 -70 150 -42 205 25 48 99 67 144 35 20 -14 24 -14 44
0 47 33 126 10 148 -44 8 -20 10 -48 6 -83 -6 -43 -5 -50 6 -39 8 8 13 37 13
72 0 51 -4 63 -29 89 -15 16 -39 32 -52 35 -20 5 -23 10 -14 26 16 30 12 50
-11 50 -24 0 -60 -18 -74 -37 -9 -12 -15 -9 -34 11 -25 27 -41 33 -41 16z
m143 -31 c-5 -18 -50 -45 -60 -36 -8 9 11 39 31 47 32 13 35 12 29 -11z"/>
<path d="M450 231 c0 -54 -17 -61 -161 -61 l-129 0 0 -70 0 -70 133 0 c127 0
135 1 155 23 19 20 22 35 22 110 0 47 -4 89 -10 92 -6 4 -10 -6 -10 -24z m0
-105 c0 -70 -12 -76 -151 -76 l-119 0 0 50 c0 43 3 50 20 50 15 0 20 -7 20
-25 0 -14 5 -25 10 -25 6 0 10 11 10 25 0 18 5 25 20 25 16 0 20 -7 20 -35 0
-19 5 -35 10 -35 6 0 10 16 10 35 0 28 4 35 20 35 16 0 20 -7 20 -30 0 -16 5
-30 10 -30 6 0 10 14 10 30 0 23 4 30 20 30 16 0 20 -7 20 -35 0 -19 5 -35 10
-35 6 0 10 18 10 39 0 33 5 43 28 50 1 1 2 -19 2 -43z"/>
</g>
</svg>
